<?xml version="1.0" encoding="UTF-8" standalone="no"?>
<svg
   width="40"
   height="40"
   fill="none"
   version="1.1"
   id="svg3251"
   sodipodi:docname="building-icon.svg"
   inkscape:version="1.1.2 (0a00cf5339, 2022-02-04)"
   xmlns:inkscape="http://www.inkscape.org/namespaces/inkscape"
   xmlns:sodipodi="http://sodipodi.sourceforge.net/DTD/sodipodi-0.dtd"
   xmlns:xlink="http://www.w3.org/1999/xlink"
   xmlns="http://www.w3.org/2000/svg"
   xmlns:svg="http://www.w3.org/2000/svg">
  <sodipodi:namedview
     id="namedview3253"
     pagecolor="#ffffff"
     bordercolor="#999999"
     borderopacity="1"
     inkscape:pageshadow="0"
     inkscape:pageopacity="0"
     inkscape:pagecheckerboard="0"
     showgrid="false"
     inkscape:zoom="17.05"
     inkscape:cx="20"
     inkscape:cy="19.970674"
     inkscape:window-width="1900"
     inkscape:window-height="1035"
     inkscape:window-x="10"
     inkscape:window-y="35"
     inkscape:window-maximized="1"
     inkscape:current-layer="svg3251" />
  <g
     id="g3445"
     style="fill:url(#linearGradient3471);fill-opacity:1.0">
    <path
       d="M35.667 4.333c-.667-.667-1.5-1-2.333-1H16.667c-.833 0-1.667.333-2.333 1s-1 1.5-1 2.333v6.667a1.51 1.51 0 0 0-1.167.5l-8.333 8.333a1.51 1.51 0 0 0-.5 1.167V35c0 .833.833 1.667 1.667 1.667h30c.833 0 1.667-.833 1.667-1.667V6.667c0-.833-.333-1.667-1-2.333zM20 33.333h-5v-5c0-.833-.833-1.667-1.667-1.667s-1.667.833-1.667 1.667v5h-5V24l6.667-6.667L20 24v9.333zm13.333 0h-10v-10a1.51 1.51 0 0 0-.5-1.167L16.667 16V6.667h16.667v26.667z"
       fill="url(#A)"
       id="path3234"
       style="fill:url(#linearGradient3471);fill-opacity:1.0" />
    <path
       d="M23.334 11.667c0 1-.833 1.667-1.667 1.667S20 12.5 20 11.667 20.834 10 21.667 10s1.667.833 1.667 1.667z"
       fill="url(#A)"
       id="path3236"
       style="fill:url(#linearGradient3471);fill-opacity:1.0" />
    <path
       d="M30 11.667c0 1-.833 1.667-1.667 1.667s-1.667-.833-1.667-1.667S27.5 10 28.334 10 30 10.833 30 11.667z"
       fill="url(#A)"
       id="path3238"
       style="fill:url(#linearGradient3471);fill-opacity:1.0" />
    <path
       d="M30 18.333c0 1-.833 1.667-1.667 1.667s-1.667-.833-1.667-1.667.833-1.667 1.667-1.667S30 17.5 30 18.333z"
       fill="url(#A)"
       id="path3240"
       style="fill:url(#linearGradient3471);fill-opacity:1.0" />
    <path
       d="M30 25c0 1-.833 1.667-1.667 1.667s-1.667-.833-1.667-1.667.833-1.667 1.667-1.667S30 24.167 30 25z"
       fill="url(#A)"
       id="path3242"
       style="fill:url(#linearGradient3471);fill-opacity:1.0" />
  </g>
  <defs
     id="defs3249">
    <linearGradient
       id="A"
       x1="3.334"
       y1="36.667"
       x2="24.794"
       y2="-6.928"
       gradientUnits="userSpaceOnUse">
      <stop
         stop-color="#5d3cf2"
         id="stop3244"
         style="stop-color:#000000;stop-opacity:1" />
      <stop
         offset="1"
         stop-color="#fd5631"
         id="stop3246"
         style="stop-color:#0be47b;stop-opacity:1" />
    </linearGradient>
    <linearGradient
       inkscape:collect="always"
       xlink:href="#A"
       id="linearGradient3471"
       x1="3.3333609"
       y1="20"
       x2="36.667999"
       y2="20"
       gradientUnits="userSpaceOnUse" />
  </defs>
</svg>
