<?xml version="1.0" encoding="UTF-8" standalone="no"?>
<svg
   width="344"
   height="404"
   fill="none"
   version="1.1"
   id="svg1709"
   sodipodi:docname="sign-up.svg"
   inkscape:version="1.1.1 (3bf5ae0d25, 2021-09-20, custom)"
   xmlns:inkscape="http://www.inkscape.org/namespaces/inkscape"
   xmlns:sodipodi="http://sodipodi.sourceforge.net/DTD/sodipodi-0.dtd"
   xmlns:xlink="http://www.w3.org/1999/xlink"
   xmlns="http://www.w3.org/2000/svg"
   xmlns:svg="http://www.w3.org/2000/svg">
  <sodipodi:namedview
     id="namedview1711"
     pagecolor="#ffffff"
     bordercolor="#999999"
     borderopacity="1"
     inkscape:pageshadow="0"
     inkscape:pageopacity="0"
     inkscape:pagecheckerboard="0"
     showgrid="false"
     inkscape:zoom="1.6881188"
     inkscape:cx="171.78886"
     inkscape:cy="201.70381"
     inkscape:window-width="1900"
     inkscape:window-height="1035"
     inkscape:window-x="10"
     inkscape:window-y="35"
     inkscape:window-maximized="1"
     inkscape:current-layer="svg1709" />
  <style
     id="style1593"><![CDATA[.B{fill:#1f1b2d}.C{fill:#fd5631}.D{fill:#d1734a}.E{fill:#efecf3}.F{fill:#eb996e}]]></style>
  <path
     d="M237.914 86.228L29.445 108.152 57.419 373.58l208.469-21.925-27.974-265.427z"
     class="E"
     id="path1595" />
  <path
     d="M 245.861,91.909 39.473,122.832 75.92,365.575 282.309,334.652 245.862,91.909 Z"
     id="path1597"
     style="fill:#f5f4f8" />
  <path
     d="m 327.045,113.829 c 0,0 -8.198,-5.397 -18.129,14.113 -9.931,19.51 -13.731,30.75 -13.731,30.75 0,0 -2.632,4.046 -5.443,1.416 -2.811,-2.63 -6.667,-10.261 -11.447,-8.901 -4.957,1.416 -6.593,6.943 -5.67,15.067 0.923,8.124 2.365,25.992 2.487,27.611 0.122,1.619 -0.81,3.924 -2.997,2.427 -2.187,-1.497 -14.914,-15.642 -21.265,-9.217 -6.351,6.425 0,28.614 0.657,31.058 0.657,2.444 0.17,3.48 -0.997,4.046 -1.167,0.566 -4.982,-4.548 -8.757,-8.416 -3.775,-3.868 -8.837,-7.695 -12.191,-3.69 -3.354,4.005 -4.423,20.668 11.438,47.744 l 8.182,12.081 14.581,-0.809 c 31.171,-3.633 43.841,-14.517 45.023,-19.615 1.182,-5.098 -4.917,-6.814 -10.288,-7.502 -5.371,-0.688 -11.786,-0.623 -12.005,-1.909 -0.219,-1.286 0.332,-2.299 2.674,-3.237 2.342,-0.938 23.905,-9.25 25.209,-18.183 1.304,-8.933 -17.635,-10.52 -20.179,-11.402 -2.544,-0.882 -1.215,-2.978 0.122,-3.844 1.337,-0.866 16.501,-10.52 23.564,-14.646 7.063,-4.126 10.491,-8.764 8.644,-13.571 -1.79,-4.637 -10.175,-3.14 -14.006,-3.771 -3.831,-0.631 -2.147,-5.195 -2.147,-5.195 0,0 6.732,-9.792 16.331,-29.488 9.599,-19.696 0.121,-23.006 0.121,-23.006"
     id="path1599"
     style="fill:#f5f4f8" />
  <path
     opacity="0.1"
     d="m 318.101,131.289 -0.187,0.421 -0.567,1.222 -2.235,4.717 -8.36,17.131 -28.199,56.16 -28.352,56.151 -8.49,17.066 -2.252,4.637 -0.615,1.206 -0.219,0.396 c 0,0 0.057,-0.145 0.178,-0.421 l 0.575,-1.221 2.236,-4.67 8.352,-17.131 28.206,-56.216 28.353,-56.143 8.481,-17.066 2.317,-4.637 0.608,-1.197 z"
     id="path1603"
     style="fill:#000000" />
  <path
     opacity="0.1"
     d="m 283.254,162.082 c 0.163,0.313 0.288,0.645 0.373,0.987 l 0.81,2.744 2.341,9.152 2.146,9.2 0.665,2.784 c 0.103,0.335 0.174,0.679 0.21,1.028 a 4.62,4.62 0 0 1 -0.38,-0.987 l -0.811,-2.744 -2.276,-9.176 -2.211,-9.177 -0.681,-2.775 c -0.093,-0.339 -0.155,-0.686 -0.186,-1.036 z m 7.891,26.154 c 0,-0.121 6.569,-2.12 14.751,-4.475 8.182,-2.355 14.848,-4.151 14.881,-4.046 0.033,0.105 -6.57,2.129 -14.752,4.475 z m -18.579,32.867 c 0.357,-0.057 0.718,-0.073 1.078,-0.049 h 2.924 l 9.64,-0.145 9.623,-0.575 2.917,-0.227 a 4.41,4.41 0 0 1 1.077,0 c -0.344,0.1 -0.696,0.168 -1.053,0.203 l -2.908,0.372 -9.64,0.712 h -9.664 l -2.924,-0.154 a 5.14,5.14 0 0 1 -1.07,-0.137 z m -12.339,-22.087 a 4.34,4.34 0 0 1 0.567,0.809 l 1.409,2.306 c 1.175,1.958 2.131,5.317 4.504,7.688 l 4.391,7.76 1.288,2.371 a 3.88,3.88 0 0 1 0.413,0.906 4.25,4.25 0 0 1 -0.567,-0.809 l -1.41,-2.306 -4.504,-7.688 -4.39,-7.752 -1.288,-2.339 a 3.81,3.81 0 0 1 -0.413,-0.946 z m -20.086,26.937 c 0.273,0.327 0.515,0.679 0.721,1.052 l 1.814,2.946 5.857,9.815 5.735,9.873 1.693,3.026 c 0.222,0.36 0.412,0.739 0.567,1.133 -0.272,-0.325 -0.513,-0.674 -0.721,-1.044 l -1.814,-2.953 -5.849,-9.808 -5.743,-9.881 -1.693,-3.018 a 7.26,7.26 0 0 1 -0.567,-1.141 z m 16.183,27.067 a 8.74,8.74 0 0 1 1.361,-0.097 l 3.71,-0.114 12.216,-0.582 c 4.763,-0.308 9.081,-0.696 12.2,-1.004 l 3.694,-0.356 c 0.45,-0.067 0.905,-0.094 1.36,-0.081 -0.439,0.115 -0.885,0.199 -1.336,0.251 a 99.92,99.92 0 0 1 -3.686,0.502 c -3.111,0.388 -7.42,0.809 -12.2,1.133 -4.78,0.324 -9.105,0.429 -12.248,0.453 h -3.71 c -0.456,0.009 -0.912,-0.026 -1.361,-0.105 z"
     id="path1605"
     style="fill:#000000" />
  <path
     d="M14.195 246.957c1.443-.732 3.019-1.165 4.634-1.274s3.235.11 4.763.643c3.061 1.082 5.832 2.851 8.101 5.171 4.488 4.337 7.291 10.948 8.911 16.993-6.804 1.36-13.844-2.541-17.287-4.742-5.452-3.479-13.188-13.069-9.113-16.775m38.222 22.923a10.25 10.25 0 0 1-3.986-3.52c-.995-1.503-1.577-3.242-1.684-5.041-.079-1.805.201-3.607.826-5.302a13.62 13.62 0 0 1 2.811-4.571c1.118-1.238 2.6-2.371 4.261-2.29.778.087 1.518.378 2.146.844a4.41 4.41 0 0 1 1.427 1.81 8.83 8.83 0 0 1 .559 4.588c-.51 5.317-1.977 10.367-6.318 13.482"
     class="C"
     id="path1609"
     style="fill:#dc3545;fill-opacity:1" />
  <path
     d="m 63.413,286.804 a 6.53,6.53 0 0 1 -0.891,-0.923 l -2.349,-2.597 c -1.928,-2.218 -4.747,-5.317 -6.562,-9.525 a 22.07,22.07 0 0 1 -1.831,-11.377 14.54,14.54 0 0 1 0.81,-3.415 9.2,9.2 0 0 1 0.381,-0.882 c 0.089,-0.195 0.146,-0.3 0.162,-0.292 -0.509,1.504 -0.864,3.054 -1.061,4.629 -0.304,3.831 0.371,7.676 1.96,11.175 1.766,4.127 4.512,7.235 6.383,9.5 l 2.236,2.695 c 0.285,0.312 0.54,0.651 0.761,1.012 z"
     id="path1611"
     style="fill:#1f1b2d" />
  <path
     d="m 20.742,253.738 c 0.171,0.082 0.333,0.18 0.486,0.292 l 1.32,0.898 4.812,3.399 a 530.8,530.8 0 0 1 15.561,11.644 557.5,557.5 0 0 1 15.156,12.179 l 4.488,3.811 1.199,1.06 0.397,0.397 a 3,3 0 0 1 -0.454,-0.324 l -1.256,-0.995 -4.577,-3.698 -15.262,-12.042 -15.472,-11.741 -4.723,-3.512 -1.28,-0.971 c -0.147,-0.117 -0.28,-0.25 -0.397,-0.397 z"
     id="path1613"
     style="fill:#1f1b2d" />
  <path
     d="M49.906 279.364a24.05 24.05 0 0 0-10.927-2.816c-3.815-.059-7.588.79-11.009 2.476-1.725.874-3.548 2.347-3.394 4.273s2.203 3.099 4.05 3.649c3.907 1.069 8.043.957 11.887-.32a20.51 20.51 0 0 0 9.71-6.857"
     class="C"
     id="path1617"
     style="fill:#dc3545;fill-opacity:1" />
  <path
     d="M33.156 281.945a5.71 5.71 0 0 1 1.061-.582 11.4 11.4 0 0 1 1.296-.591c.576-.249 1.166-.465 1.766-.647a20.37 20.37 0 0 1 2.195-.615c.853-.199 1.715-.353 2.584-.461 1.997-.224 4.013-.224 6.011 0a25.98 25.98 0 0 1 5.84 1.424c.83.308 1.642.665 2.43 1.068.684.343 1.349.721 1.993 1.133.608.348 1.085.76 1.539 1.076a11.38 11.38 0 0 1 1.102.898 6.4 6.4 0 0 1 .875.809c-.073.081-1.328-1.108-3.686-2.54a21.31 21.31 0 0 0-1.985-1.069c-.774-.383-1.569-.724-2.382-1.019a26.73 26.73 0 0 0-5.743-1.36 27.83 27.83 0 0 0-5.914 0 25.29 25.29 0 0 0-2.552.421c-.81.138-1.523.364-2.187.542-2.673.793-4.204 1.603-4.245 1.513z"
     class="B"
     id="path1619" />
  <path
     d="M260.194 311.102c-5.671-3.641-7.712-8.31-8.603-14.986a23.59 23.59 0 0 1 .885-9.973c1.005-3.223 2.689-6.194 4.939-8.712 3.775-4.16 9.073-7 11.819-11.904 2.917-5.227 2.544-12.138 6.708-16.467 2.867-2.954 7.185-3.876 10.717-5.98 2.892-1.716 5.225-4.2 7.841-6.296s5.76-3.876 9.113-3.755c5.063.186 9.187 4.985 9.616 10.026s-2.195 9.978-5.93 13.401c-2.705 2.476-6.083 4.426-7.793 7.679-3.24 6.094.705 14.251-2.77 20.231-2.536 4.345-8.579 6.611-9.235 11.604-.243 1.837.349 3.674.405 5.527.178 5.786-5.055 10.649-10.717 11.895s-11.543-.315-17.011-2.266"
     class="E"
     id="path1621" />
  <path
     opacity=".2"
     d="M293.466 253.775c-.163.245-.351.473-.559.68l-1.709 1.837-2.673 2.937-3.411 3.998-3.888 5.041-2.058 2.889-2.065 3.14a111.44 111.44 0 0 0-7.842 14.752c-2.18 5.132-3.954 10.427-5.306 15.836-.575 2.509-1.134 4.855-1.458 7.154l-.867 6.295c-.218 1.934-.291 3.69-.421 5.236s-.138 2.873-.154 3.965l-.056 2.509c.007.293-.018.586-.073.874a3.83 3.83 0 0 1-.065-.874c0-.648-.041-1.481-.073-2.517a58.59 58.59 0 0 1 0-3.973c.057-1.546.081-3.326.316-5.268s.381-4.046.81-6.344.81-4.678 1.401-7.202c1.335-5.457 3.11-10.796 5.306-15.966a107.61 107.61 0 0 1 7.947-14.825l2.098-3.14c.681-1.019 1.426-1.95 2.098-2.881 1.345-1.869 2.73-3.503 3.978-5.009s2.43-2.791 3.491-3.948 1.985-2.104 2.77-2.865l1.807-1.748a4.33 4.33 0 0 1 .656-.583z"
     fill="#000"
     id="path1623" />
  <path
     d="M265.252 106.213H56.555v245.458h208.697V106.213z"
     fill="#fff"
     id="path1625" />
  <path
     d="M265.258 351.671l-.194-245.458.194.186H56.577l.211-.21v245.458l-.178-.178 208.705.178-208.705.178h-.227v-.178-245.458-.21h.235 208.681.186v.194l-.227 245.498zM157.506 219.618v-.453-1.311-5.065l-.081-18.879.138.129-81.889.081.211-.21v25.708l-.203-.202 58.527.089 17.141.057h4.609 1.199.413-.389-1.239-4.561l-17.092.064-58.673.089h-.211v-26.016h.211l81.889.073h.138v.138l-.073 18.959v5.034 1.286c0 .3-.065.429-.065.429zm90.647 34.819v-1.692-4.944l-.057-19.073.106.105-172.545.105.211-.21v25.709l-.211-.203 122.758.089 36.453.057h9.858 2.56.883-.85-2.536-9.81l-36.453.065-122.903.089h-.211v-26.016h.219l172.544.105h.105v.105l-.064 19.138v4.92l-.057 1.651zm0 34.586v-1.691-4.944l-.057-19.073.106.097-172.545.113.211-.21v25.708l-.211-.21 122.758.089 36.453.065h9.858 2.56.883-.85-2.536-9.81l-36.453.056-122.903.097h-.211v-26.04h.219l172.544.113h.105v.106l-.064 19.129v4.92l-.057 1.675zm-.002-69.407v-.453-1.311-5.066l-.073-18.879.138.13-81.89.081.211-.211v25.709l-.211-.202 58.536.089 17.141.056h4.609 1.199.413-.389-1.247-4.561l-17.093.065-58.681.089h-.202v-.202-25.709-.21h.218l81.89.073h.138v.137l-.081 18.96v5.033 1.287c0 .299-.065.534-.065.534z"
     class="B"
     id="path1627" />
  <path
     d="m 92.766,210.484 a 4.82,4.82 0 0 1 -0.624,0.04 l -1.847,0.057 -6.723,0.145 h -0.259 l 0.081,-0.242 a 4.91,4.91 0 0 1 1.296,-2.169 c 0.692,-0.623 1.556,-1.023 2.479,-1.149 l -0.049,0.396 a 3.11,3.11 0 0 1 -1.293,-1.053 c -0.327,-0.462 -0.521,-1.004 -0.562,-1.569 a 3.17,3.17 0 0 1 0.391,-1.825 c 0.311,-0.556 0.781,-1.005 1.351,-1.29 0.544,-0.249 1.153,-0.315 1.738,-0.188 a 2.76,2.76 0 0 1 1.503,0.892 3.24,3.24 0 0 1 0.689,2.954 c -0.111,0.444 -0.323,0.857 -0.619,1.206 a 2.99,2.99 0 0 1 -1.09,0.809 v -0.284 a 4.58,4.58 0 0 1 2.001,0.81 4.25,4.25 0 0 1 1.085,1.197 3.23,3.23 0 0 1 0.494,1.279 l -0.154,-0.316 a 6.42,6.42 0 0 0 -0.478,-0.874 4.12,4.12 0 0 0 -1.299,-1.231 c -0.518,-0.31 -1.098,-0.503 -1.699,-0.565 l -0.543,-0.065 0.51,-0.218 c 0.37,-0.173 0.695,-0.427 0.952,-0.744 a 2.69,2.69 0 0 0 0.53,-1.085 2.87,2.87 0 0 0 -0.632,-2.606 2.43,2.43 0 0 0 -1.294,-0.743 c -0.499,-0.106 -1.018,-0.053 -1.485,0.152 -0.49,0.25 -0.895,0.642 -1.16,1.123 a 2.75,2.75 0 0 0 -0.33,1.58 2.7,2.7 0 0 0 1.62,2.282 l 0.689,0.275 -0.737,0.122 c -0.844,0.11 -1.635,0.474 -2.268,1.043 a 4.58,4.58 0 0 0 -1.223,1.983 l -0.178,-0.235 6.594,0.057 h 1.896 a 4.85,4.85 0 0 1 0.648,0.049 z m 96,-0.004 c -0.204,0.028 -0.41,0.042 -0.616,0.041 l -1.855,0.056 -6.724,0.146 h -0.251 l 0.073,-0.243 a 4.91,4.91 0 0 1 1.296,-2.168 4.65,4.65 0 0 1 2.479,-1.166 l -0.048,0.397 c -0.518,-0.227 -0.964,-0.592 -1.29,-1.054 -0.326,-0.462 -0.518,-1.004 -0.557,-1.568 a 3.14,3.14 0 0 1 0.382,-1.826 3.15,3.15 0 0 1 1.351,-1.289 2.77,2.77 0 0 1 1.737,-0.186 c 0.584,0.127 1.112,0.439 1.503,0.89 0.347,0.399 0.589,0.877 0.708,1.392 0.119,0.515 0.109,1.051 -0.027,1.561 a 2.98,2.98 0 0 1 -0.62,1.207 c -0.296,0.349 -0.669,0.626 -1.089,0.808 v -0.283 c 0.722,0.106 1.408,0.384 2.001,0.809 0.437,0.324 0.806,0.731 1.085,1.198 a 3.23,3.23 0 0 1 0.494,1.278 l -0.154,-0.315 c -0.129,-0.307 -0.29,-0.6 -0.478,-0.874 a 4.09,4.09 0 0 0 -1.294,-1.231 4.1,4.1 0 0 0 -1.695,-0.566 l -0.543,-0.064 0.503,-0.219 a 2.72,2.72 0 0 0 0.954,-0.744 c 0.258,-0.317 0.441,-0.688 0.536,-1.085 a 2.87,2.87 0 0 0 0.002,-1.381 2.88,2.88 0 0 0 -0.642,-1.224 c -0.337,-0.383 -0.788,-0.647 -1.287,-0.754 a 2.38,2.38 0 0 0 -1.483,0.163 c -0.493,0.248 -0.899,0.638 -1.167,1.121 a 2.74,2.74 0 0 0 -0.332,1.582 c 0.035,0.492 0.205,0.965 0.491,1.367 a 2.69,2.69 0 0 0 1.129,0.915 l 0.689,0.275 -0.737,0.121 c -0.845,0.111 -1.636,0.475 -2.269,1.044 -0.569,0.545 -0.988,1.228 -1.215,1.983 l -0.178,-0.235 6.586,0.057 h 1.904 a 4.71,4.71 0 0 1 0.648,0.064 z m -97.547,63.459 a 3.24,3.24 0 0 1 -0.073,-0.526 2.61,2.61 0 0 0 -0.292,-1.23 2.06,2.06 0 0 0 -1.49,-1.02 1.99,1.99 0 0 0 -1.097,0.165 c -0.343,0.158 -0.634,0.409 -0.839,0.725 -0.179,0.271 -0.285,0.583 -0.308,0.907 v 0.987 l -0.194,-0.202 a 42.79,42.79 0 0 1 4.326,0.194 34.53,34.53 0 0 1 -4.326,0.202 h -0.203 v -0.202 -1.012 a 2.23,2.23 0 0 1 0.364,-1.1 2.34,2.34 0 0 1 2.349,-1.044 2.28,2.28 0 0 1 1.001,0.424 c 0.294,0.22 0.532,0.507 0.692,0.838 0.208,0.441 0.274,0.936 0.186,1.416 -0.032,0.348 -0.097,0.502 -0.097,0.478 z m -1.404,5.261 a 7.12,7.12 0 0 1 -0.389,-0.947 v -0.089 l 0.089,-0.065 a 0.67,0.67 0 0 0 0.162,-0.873 0.62,0.62 0 0 0 -0.182,-0.224 c -0.077,-0.06 -0.168,-0.1 -0.264,-0.118 a 0.63,0.63 0 0 0 -0.541,0.154 0.63,0.63 0 0 0 -0.161,0.24 c -0.034,0.092 -0.046,0.19 -0.035,0.287 a 0.62,0.62 0 0 0 0.098,0.271 c 0.053,0.082 0.125,0.15 0.21,0.199 l 0.13,0.073 -0.04,0.137 -0.243,0.963 -0.154,-0.194 a 9.96,9.96 0 0 1 1.345,0.154 4.33,4.33 0 0 1 -1.345,0.161 H 88.3 v -0.21 l 0.178,-0.979 0.089,0.21 c -0.129,-0.078 -0.239,-0.184 -0.322,-0.31 a 1.02,1.02 0 0 1 -0.158,-0.419 c -0.021,-0.15 -0.008,-0.301 0.037,-0.445 0.045,-0.144 0.122,-0.277 0.224,-0.387 a 1,1 0 0 1 0.907,-0.316 1.02,1.02 0 0 1 0.423,0.171 c 0.126,0.089 0.231,0.204 0.306,0.339 a 0.97,0.97 0 0 1 0.089,0.721 c -0.065,0.243 -0.222,0.452 -0.437,0.582 l 0.065,-0.154 a 2.88,2.88 0 0 1 0.113,1.068 z"
     id="path1629"
     style="fill:#dc3545;fill-opacity:1" />
  <path
     d="m 91.82,273.949 a 0.93,0.93 0 0 1 0.356,0 1.62,1.62 0 0 1 0.757,0.491 1.63,1.63 0 0 1 0.377,0.82 v 0.874 2.12 1.23 a 6.82,6.82 0 0 1 -0.049,1.384 1.71,1.71 0 0 1 -0.38,0.692 1.73,1.73 0 0 1 -0.649,0.449 c -0.257,0.103 -0.534,0.147 -0.81,0.129 h -0.81 -3.24 -0.859 a 1.76,1.76 0 0 1 -1.345,-0.528 1.76,1.76 0 0 1 -0.393,-0.626 1.75,1.75 0 0 1 -0.101,-0.731 v -3.642 -0.866 a 2.27,2.27 0 0 1 0.113,-0.914 1.74,1.74 0 0 1 1.377,-1.109 l -0.162,0.186 v -1.132 a 2.86,2.86 0 0 1 0.332,-1.085 2.94,2.94 0 0 1 1.717,-1.327 c 0.543,-0.196 1.133,-0.224 1.693,-0.08 0.56,0.144 1.062,0.455 1.442,0.889 a 2.74,2.74 0 0 1 0.705,2.015 5.8,5.8 0 0 1 -0.073,0.761 4.04,4.04 0 0 1 -0.049,-0.753 c -0.004,-0.696 -0.273,-1.364 -0.753,-1.869 a 2.63,2.63 0 0 0 -1.033,-0.668 c -0.392,-0.138 -0.812,-0.18 -1.224,-0.124 a 2.62,2.62 0 0 0 -1.147,0.447 c -0.341,0.237 -0.621,0.553 -0.816,0.92 a 2.56,2.56 0 0 0 -0.284,0.954 v 1.109 0.162 H 86.35 a 1.37,1.37 0 0 0 -0.648,0.29 1.36,1.36 0 0 0 -0.414,0.576 2.13,2.13 0 0 0 -0.081,0.809 v 0.866 3.641 a 1.36,1.36 0 0 0 0.689,1.303 1.49,1.49 0 0 0 0.729,0.17 h 4.115 c 0.482,0.046 0.968,0.018 1.442,-0.081 0.196,-0.076 0.371,-0.198 0.511,-0.353 0.14,-0.155 0.243,-0.343 0.299,-0.545 0.059,-0.426 0.081,-0.857 0.065,-1.287 v -1.23 -2.12 -0.858 c -0.021,-0.227 -0.096,-0.446 -0.219,-0.639 a 1.83,1.83 0 0 0 -1.021,-0.72 z m 3.549,-26.918 c -0.024,-0.207 -0.037,-0.415 -0.04,-0.624 l -0.057,-1.691 -0.154,-6.004 0.17,0.17 -12.345,0.162 0.178,-0.243 v 1.084 1.093 2.128 3.989 l -0.194,-0.186 h 8.838 2.56 c 0.316,-0.008 0.633,0.006 0.948,0.041 a 5.48,5.48 0 0 1 -0.859,0.048 l -2.519,0.081 -8.968,0.178 h -0.186 v -0.194 l -0.049,-3.998 v -2.128 -1.084 -1.093 l 0.211,-0.218 12.345,-0.081 h 0.17 v 0.17 6.109 1.619 a 2.5,2.5 0 0 1 -0.049,0.672 z"
     id="path1631"
     style="fill:#dc3545;fill-opacity:1" />
  <path
     d="m 95.27,238.715 c -0.518,0.533 -1.091,1.011 -1.709,1.424 l -4.293,3.188 h -0.284 l -0.081,-0.056 -0.162,-0.114 -0.316,-0.218 -0.616,-0.429 -1.158,-0.809 -1.952,-1.408 a 11.73,11.73 0 0 1 -1.734,-1.392 c 0.67,0.321 1.308,0.706 1.904,1.149 l 2.001,1.335 1.175,0.809 0.624,0.429 0.316,0.219 0.154,0.105 0.081,0.057 h 0.041 -0.227 l 4.374,-3.092 c 0.584,-0.454 1.207,-0.855 1.863,-1.197 z"
     id="path1633"
     style="fill:#dc3545;fill-opacity:1" />
  <path
     d="m 83.262,247.145 a 12.95,12.95 0 0 1 1.887,-2.735 c 0.636,-0.918 1.384,-1.752 2.228,-2.484 a 12.78,12.78 0 0 1 -1.896,2.743 c -0.633,0.915 -1.379,1.747 -2.22,2.476 z m 8.14,-5.219 a 12.57,12.57 0 0 1 2.147,2.427 12.46,12.46 0 0 1 1.814,2.687 12.5,12.5 0 0 1 -2.147,-2.428 c -0.721,-0.811 -1.331,-1.715 -1.815,-2.686 z"
     id="path1635"
     style="fill:#dc3545;fill-opacity:1" />
  <use
     xlink:href="#B"
     id="use1637"
     style="fill:#dc3545;fill-opacity:1"
     x="0"
     y="0"
     width="100%"
     height="100%" />
  <use
     xlink:href="#B"
     opacity=".09"
     fill="#000"
     id="use1641" />
  <use
     xlink:href="#B"
     y="-3.658"
     class="C"
     id="use1643"
     style="fill:#dc3545;fill-opacity:1" />
  <path
     d="M147.313 312.364a2.78 2.78 0 0 1 .214-1.106 2.79 2.79 0 0 1 .635-.931c.273-.264.598-.469.953-.603s.735-.194 1.114-.176a2.72 2.72 0 0 1 1.142.201 2.73 2.73 0 0 1 .956.657l-.51.493a2.13 2.13 0 0 0-1.089-.617c-.416-.092-.851-.057-1.247.1a2.13 2.13 0 0 0-.977 3.173c.24.353.58.625.977.783a2.13 2.13 0 0 0 2.336-.517l.51.493c-.268.287-.595.513-.959.662a2.73 2.73 0 0 1-1.147.204c-.379.017-.757-.044-1.112-.179a2.79 2.79 0 0 1-.949-.603 2.78 2.78 0 0 1-.634-.93c-.145-.35-.218-.725-.213-1.104zm9.819 2.749l-1.191-1.692h-.34-1.369v1.675h-.81v-5.502h2.155c1.425 0 2.292.72 2.292 1.918.019.382-.09.759-.308 1.074a1.74 1.74 0 0 1-.899.665l1.304 1.845-.834.017zm0-3.585c0-.809-.527-1.23-1.531-1.23h-1.345v2.476h1.345c.98 0 1.507-.461 1.507-1.246h.024zm6.038 2.902v.68h-4.002v-5.503h3.888v.688h-3.102v1.691h2.77v.664h-2.77v1.78h3.216zm4.786-.696h-2.933l-.607 1.376h-.811l2.495-5.503h.811l2.503 5.503h-.81l-.648-1.376zm-.276-.623l-1.191-2.702-1.19 2.702h2.381zm3.336-2.816h-1.887v-.688h4.561v.688h-1.896v4.815h-.81l.032-4.815zm7.525 4.135v.68h-4.002v-5.503h3.888v.688h-3.102v1.691h2.762v.664h-2.762v1.78h3.216z"
     fill="#fff"
     id="path1645" />
  <path
     d="M137.144 147.799c22.255-22.232 22.255-58.277 0-80.508s-58.338-22.232-80.593 0-22.255 58.276 0 80.508 58.338 22.232 80.593 0z"
     class="E"
     id="path1647" />
  <path
     d="M129.495 30.599c-.996 1.249-1.604 2.763-1.748 4.354a8.16 8.16 0 0 0 .938 4.596c.713 1.279 1.798 2.428 1.961 3.876.267 2.355-2.018 4.475-1.621 6.822.251 1.618 1.621 2.727 2.366 4.159a5.48 5.48 0 0 1-.624 5.834c-1.037 1.262-2.665 2.064-3.337 3.561-.503 1.101-.381 2.428-.811 3.536a5.49 5.49 0 0 1-1.744 2.189c-.761.567-1.656.928-2.597 1.047-1.895.227-3.814.121-5.671-.316l.413-2.047c-.351.544-.83.994-1.394 1.311s-1.199.492-1.846.51a11.63 11.63 0 0 1-3.824-.566c-.769-3.472-1.523-7.137-.437-10.52.988-3.043 3.321-5.422 5.265-7.963 2.159-2.821 3.887-5.946 5.128-9.274.891-2.387 1.531-4.855 2.779-7.121s3.24-4.224 5.735-4.701"
     class="B"
     id="path1649" />
  <path
     d="M166.56 78.418l-11.277.809-.113-2.897c-.15-1.435.192-2.879.972-4.095.125-.214.215-.446.267-.688.081-.858-1.182-5.163-1.62-6.741-.551-1.894.527-2.897.948-2.12.762 1.416 2.779 7.493 3.41 8.092s.268-2.581.268-2.581c-.988-6.692-1.418-7.663-.227-7.914 1.369-.291 2.876 9.67 2.876 9.67s-.203-1.392.867-1.675 1.563 1.084 1.563 1.084c-.138-.704.875-.809.875-.809 2.527.348 1.215 9.953 1.215 9.953l-11.276.809-5.403 37.669-5.768-8.828-15.051 10.73 13.569 16.184a12.03 12.03 0 0 0 4.336 3.257 12.05 12.05 0 0 0 5.328 1.024 12.01 12.01 0 0 0 7.974-3.427c2.138-2.096 3.413-4.915 3.577-7.902l2.69-49.605z"
     class="F"
     id="path1651" />
  <path
     d="m 157.739,78.521 c -0.048,-0.057 0.551,-0.583 1.353,-1.57 0.466,-0.578 0.888,-1.189 1.264,-1.829 l 0.615,-1.165 a 2.67,2.67 0 0 0 0.389,-1.23 0.52,0.52 0 0 0 -0.324,-0.469 c -0.221,-0.037 -0.449,0 -0.648,0.105 a 7.27,7.27 0 0 0 -1.255,0.753 7.02,7.02 0 0 0 -1.621,1.724 l -0.129,0.186 -0.097,-0.194 a 4.23,4.23 0 0 0 -0.891,-1.109 c 0,0 0.615,0.146 1.142,1.02 h -0.227 a 6.53,6.53 0 0 1 1.62,-1.877 7.06,7.06 0 0 1 1.32,-0.809 1.39,1.39 0 0 1 0.94,-0.129 0.94,0.94 0 0 1 0.624,0.81 c -0.015,0.521 -0.166,1.028 -0.437,1.473 a 12.51,12.51 0 0 1 -0.657,1.173 12.58,12.58 0 0 1 -1.369,1.829 6.39,6.39 0 0 1 -1.612,1.311 z m 4.465,-8.037 a 10.55,10.55 0 0 1 0,2.072 c 0,0.68 -0.073,1.432 -0.122,2.233 a 8.53,8.53 0 0 0 0,1.279 c 0,0.397 0.381,0.736 0.664,0.575 0.283,-0.161 0.446,-0.647 0.567,-1.076 l 0.308,-1.27 0.43,-2.193 a 8.83,8.83 0 0 1 0.477,-2.015 11.7,11.7 0 0 1 -0.186,2.063 l -0.34,2.225 -0.292,1.303 a 2.01,2.01 0 0 1 -0.269,0.753 2.02,2.02 0 0 1 -0.541,0.59 0.81,0.81 0 0 1 -0.899,-0.154 1.15,1.15 0 0 1 -0.356,-0.745 c -0.026,-0.454 -0.01,-0.909 0.048,-1.359 l 0.219,-2.233 c 0.026,-0.691 0.124,-1.377 0.292,-2.047 z"
     id="path1653"
     style="fill:#d1734a" />
  <path
     d="m 164.13,73.359 c 0.065,0 -0.097,0.469 -0.048,1.198 a 2.29,2.29 0 0 0 0.348,1.133 c 0.138,0.138 0.235,0.146 0.365,0 0.145,-0.22 0.27,-0.453 0.372,-0.696 a 24.11,24.11 0 0 0 1.207,-3.941 7.51,7.51 0 0 1 -0.81,4.119 c -0.116,0.283 -0.26,0.554 -0.429,0.809 -0.06,0.077 -0.136,0.139 -0.223,0.183 a 0.64,0.64 0 0 1 -0.279,0.068 0.64,0.64 0 0 1 -0.478,-0.243 c -0.162,-0.216 -0.265,-0.469 -0.3,-0.736 -0.042,-0.213 -0.061,-0.43 -0.057,-0.647 -0.024,-0.842 0.26,-1.27 0.332,-1.246 z"
     id="path1655"
     style="fill:#d1734a" />
  <path
     d="M116.641 144.172l1.053 16.378c-32.07 12.276-55.894-8.092-55.894-8.092l4.796-14.655.81-25.587-6.157 6.822-2.908-2.428-14.67-12.203-3.151-2.63 15.254-16.079c19.288-20.74 34.298-14.404 34.298-14.404l22.552 2.112s15.602 2.209 23.152 15.869l12.84 22.893-19.328 13.756-6.149-11.28-6.497 29.528z"
     fill="#666276"
     id="path1659" />
  <path
     d="M39.863 107.329l.057 2.889c.133 3.799.649 7.576 1.539 11.272v.105c.113.461.243.914.373 1.368.502 1.78 1.166 3.35 1.798 5.073a21.58 21.58 0 0 0 .251.648c2.041-.534 7.461-5.665 14.079-12.357l-14.686-12.235c-1.887 2.055-2.779 2.994-3.41 3.237zm70.714-31.795l1.725-11.442s7.364-.202 10.15-9.379c2.657-8.756 4.051-29.625 4.051-29.625a27.28 27.28 0 0 0-15.918-3.48 27.26 27.26 0 0 0-15.059 6.215L89.855 73.26c-.656 5.268 3.362 10.034 9.024 10.698 5.711.663 10.977-3.107 11.698-8.424z"
     class="F"
     id="path1661" />
  <path
     d="m 121.594,40.863 a 1.22,1.22 0 0 1 -0.449,0.798 c -0.248,0.198 -0.563,0.292 -0.879,0.262 a 1.16,1.16 0 0 1 -0.447,-0.118 1.17,1.17 0 0 1 -0.367,-0.283 1.16,1.16 0 0 1 -0.227,-0.403 1.17,1.17 0 0 1 -0.053,-0.459 c 0.043,-0.313 0.205,-0.597 0.452,-0.793 0.247,-0.196 0.562,-0.289 0.877,-0.259 a 1.17,1.17 0 0 1 1.038,0.798 1.16,1.16 0 0 1 0.055,0.457 z m 2.136,-1.077 c -0.17,0.138 -0.988,-0.663 -2.284,-0.809 -1.296,-0.146 -2.341,0.348 -2.43,0.17 -0.089,-0.178 0.129,-0.348 0.583,-0.591 a 3.37,3.37 0 0 1 1.993,-0.324 3.24,3.24 0 0 1 1.798,0.866 c 0.332,0.324 0.421,0.639 0.34,0.688 z m -15.44,-0.522 a 1.22,1.22 0 0 1 -0.451,0.796 c -0.248,0.197 -0.563,0.288 -0.878,0.256 a 1.16,1.16 0 0 1 -0.447,-0.115 c -0.139,-0.068 -0.264,-0.163 -0.366,-0.28 A 1.17,1.17 0 0 1 105.92,39.52 c -0.048,-0.148 -0.066,-0.303 -0.052,-0.458 a 1.22,1.22 0 0 1 0.449,-0.798 c 0.248,-0.198 0.563,-0.292 0.879,-0.262 a 1.18,1.18 0 0 1 0.811,0.403 1.16,1.16 0 0 1 0.227,0.401 c 0.049,0.148 0.068,0.303 0.056,0.458 z"
     id="path1663"
     style="fill:#1f1b2d" />
  <path
     d="m 110.136,38.393 c -0.17,0.137 -0.988,-0.664 -2.284,-0.809 -1.296,-0.145 -2.341,0.34 -2.43,0.162 -0.089,-0.178 0.13,-0.34 0.583,-0.583 0.616,-0.309 1.311,-0.422 1.993,-0.324 a 3.15,3.15 0 0 1 1.798,0.866 c 0.324,0.324 0.421,0.631 0.34,0.688 z m 3.77,10.042 c 0.672,-0.078 1.356,-0.098 2.035,-0.058 0.312,0 0.617,0 0.701,-0.148 a 0.83,0.83 0 0 0 -0.084,-0.659 l -0.595,-1.728 c -0.815,-2.455 -1.356,-4.463 -1.211,-4.489 0.145,-0.026 0.922,1.955 1.73,4.41 l 0.556,1.733 a 0.9,0.9 0 0 1 0,0.859 c -0.06,0.072 -0.143,0.133 -0.242,0.179 a 1.03,1.03 0 0 1 -0.33,0.09 c -0.179,0.016 -0.361,0.016 -0.541,0 -0.681,-0.006 -1.36,-0.069 -2.019,-0.19 z"
     id="path1665"
     style="fill:#1f1b2d" />
  <path
     d="M112.28 64.094a24.13 24.13 0 0 1-12.151-5.082s2.163 6.862 11.681 7.283l.47-2.201z"
     class="D"
     id="path1669" />
  <path
     d="M116.759 22.191c.608 1.481-.348 3.237-1.701 4.046a11.84 11.84 0 0 1-4.593 1.295 8.41 8.41 0 0 0-4.423 1.683c-2.203 1.999-1.62 4.855-3.848 7.453a4.79 4.79 0 0 1-2.056 1.646 4.8 4.8 0 0 1-2.618.312c-1.782-.251-4.091.162-4.99 2.217s.186 3.569 1.183 5.454.729 3.819.162 5.883c-.405 1.489-1.685 2.654-1.969 4.176-.454 2.428 1.62 5.13.219 7.121s-4.958 1.109-6.521 2.962c-.567.656-.891 1.618-1.725 1.877-.519.073-1.047-.024-1.507-.275l-7.291-3.083.575-2.266a4.86 4.86 0 0 1-1.933 1.214c-.732.245-1.511.313-2.275.198s-1.488-.411-2.114-.862-1.136-1.044-1.487-1.731a21.87 21.87 0 0 0 4.212-3.18c1.254-1.248 2.016-2.906 2.147-4.669.073-2.136-1.085-4.297-.437-6.328.932-2.905 4.86-3.633 6.594-6.126 1.62-2.331 1.077-5.713 2.754-8.019 1.952-2.67 6.075-2.792 8.311-5.236 1.515-1.618 1.863-4.046 2.965-6.012 1.427-2.311 3.656-4.017 6.261-4.791a24.09 24.09 0 0 1 7.979-.931c2.022-.095 4.036.308 5.865 1.173 1.758.979 3.087 2.986 2.674 4.96"
     class="B"
     id="path1671" />
  <path
     d="M97.524 38.648c-.975-.354-2.03-.43-3.046-.219-.508.105-.99.308-1.418.6a3.92 3.92 0 0 0-1.077 1.099 4.14 4.14 0 0 0-.437 2.994c.243 1.009.708 1.952 1.361 2.759.418.606.973 1.105 1.62 1.457.329.177.696.27 1.069.27s.741-.093 1.069-.27"
     class="F"
     id="path1673" />
  <path
     d="M96.131 44.654c.113.057-.413.607-1.296.227-.461-.226-.817-.62-.996-1.1-.204-.556-.295-1.148-.267-1.74.011-.63.246-1.236.664-1.707a1.75 1.75 0 0 1 1.426-.591c.948.105 1.15.809 1.045.809s-.405-.316-1.045-.259c-.397.095-.747.328-.987.657s-.356.733-.325 1.139c0 1.052.235 2.047.753 2.363s.98.138 1.029.202z"
     class="D"
     id="path1675" />
  <path
     d="m 116.796,22.74 c -0.369,1.012 -0.377,2.12 -0.023,3.137 a 4.68,4.68 0 0 0 1.967,2.446 c 1.054,0.607 2.35,0.809 3.241,1.619 a 5.16,5.16 0 0 1 1.361,3.285 11.84,11.84 0 0 0 0.672,3.544 2.83,2.83 0 0 0 2.851,1.781 l 2.034,-5.996 c 0.745,-2.201 1.498,-4.556 0.964,-6.83 -0.762,-3.237 -3.97,-5.357 -7.178,-6.239 -1.469,-0.521 -3.076,-0.507 -4.536,0.041 -1.393,0.656 -2.341,2.428 -1.62,3.803 m -5.867,11.84 c -0.081,0.097 -0.365,0 -0.81,-0.138 a 8.23,8.23 0 0 0 -1.823,-0.21 7.91,7.91 0 0 0 -1.831,0.194 c -0.461,0.105 -0.745,0.227 -0.81,0.138 -0.065,-0.089 0.105,-0.405 0.6,-0.688 a 4.53,4.53 0 0 1 4.115,0 c 0.421,0.307 0.599,0.631 0.559,0.704 z m 11.79,1.597 c -0.041,0.227 -0.883,0.299 -1.896,0.154 -1.013,-0.145 -1.798,-0.421 -1.798,-0.688 0,-0.267 0.883,-0.291 1.895,-0.146 1.012,0.145 1.831,0.453 1.799,0.68 z M 94.103,47.08 a 1.24,1.24 0 0 0 0.203,0.202 3.31,3.31 0 0 1 0.437,0.696 4.97,4.97 0 0 1 0.356,2.962 c -0.263,1.456 -0.752,2.862 -1.45,4.168 a 3.76,3.76 0 0 0 -0.356,2.428 11.1,11.1 0 0 0 1.166,2.468 c 0.49,0.81 0.704,1.758 0.611,2.7 -0.093,0.942 -0.49,1.829 -1.129,2.528 a 4.05,4.05 0 0 1 -2.074,1.262 10.94,10.94 0 0 1 -2.066,0.227 5.22,5.22 0 0 0 -2.778,0.712 3.45,3.45 0 0 0 -0.753,0.752 c 0,0 0,-0.105 0.105,-0.267 a 2.09,2.09 0 0 1 0.551,-0.615 5.01,5.01 0 0 1 2.827,-0.866 c 0.674,-0.029 1.343,-0.119 2.001,-0.267 a 3.75,3.75 0 0 0 1.895,-1.19 4.32,4.32 0 0 0 1.005,-2.233 c 0.089,-0.891 -0.11,-1.787 -0.567,-2.557 a 11.14,11.14 0 0 1 -1.175,-2.581 4.13,4.13 0 0 1 0.405,-2.638 l 0.964,-2.136 a 11.32,11.32 0 0 0 0.551,-1.942 5.08,5.08 0 0 0 -0.219,-2.849 c -0.284,-0.639 -0.543,-0.939 -0.51,-0.963 z"
     id="path1677"
     style="fill:#1f1b2d" />
  <path
     d="m 131.725,68.865 a 1.09,1.09 0 0 1 -0.519,0.097 1.92,1.92 0 0 1 -0.741,-0.199 1.93,1.93 0 0 1 -0.604,-0.473 2.67,2.67 0 0 1 -0.664,-2.274 c 0.253,-1.045 0.798,-1.996 1.572,-2.743 0.925,-0.842 1.741,-1.796 2.43,-2.84 a 3.69,3.69 0 0 0 0.462,-1.942 6.4,6.4 0 0 0 -0.503,-2.096 c -0.727,-1.439 -1.376,-2.917 -1.944,-4.426 a 4.66,4.66 0 0 1 0,-2.622 c 0.321,-0.827 0.725,-1.619 1.207,-2.363 0.462,-0.696 0.647,-1.538 0.519,-2.363 -0.219,-0.784 -0.651,-1.493 -1.248,-2.047 l -1.693,-1.796 c -0.522,-0.627 -0.898,-1.362 -1.101,-2.153 -0.317,-1.453 -0.294,-2.959 0.064,-4.402 l 0.916,-3.682 c 0.51,-1.77 0.419,-3.66 -0.26,-5.373 -0.282,-0.6 -0.666,-1.148 -1.134,-1.619 l 0.114,0.073 a 2.03,2.03 0 0 1 0.291,0.251 4.23,4.23 0 0 1 0.875,1.295 c 0.348,0.724 0.56,1.506 0.624,2.306 a 10.85,10.85 0 0 1 -0.243,3.148 l -0.867,3.69 a 9.45,9.45 0 0 0 0,4.232 4.99,4.99 0 0 0 1.013,1.999 c 0.494,0.607 1.102,1.149 1.685,1.764 a 4.85,4.85 0 0 1 1.369,2.209 c 0.141,0.921 -0.057,1.861 -0.559,2.646 -0.476,0.718 -0.877,1.483 -1.199,2.282 -0.233,0.792 -0.233,1.635 0,2.428 0.555,1.494 1.187,2.958 1.896,4.386 0.299,0.709 0.472,1.465 0.51,2.233 a 4.04,4.04 0 0 1 -0.519,2.12 c -0.715,1.06 -1.561,2.025 -2.519,2.873 -0.751,0.698 -1.29,1.592 -1.555,2.581 -0.08,0.372 -0.071,0.758 0.026,1.127 a 2.43,2.43 0 0 0 0.533,0.993 c 0.301,0.384 0.739,0.636 1.223,0.704 0.364,-0.024 0.543,-0.073 0.543,-0.024 z"
     id="path1679"
     style="fill:#1f1b2d" />
  <path
     d="M163.515 79.774a14.3 14.3 0 0 0-1.758-1.894c-.724-.466-1.486-.872-2.277-1.214.46-.028.921.036 1.357.187a3.47 3.47 0 0 1 1.179.695 3.39 3.39 0 0 1 .978.959 3.4 3.4 0 0 1 .521 1.267zm-12.085 44.347a12.27 12.27 0 0 1-1.174-3.666 11.77 11.77 0 0 1-.349-3.844 34.54 34.54 0 0 1 .762 3.755 32.18 32.18 0 0 1 .761 3.755z"
     class="D"
     id="path1683" />
  <path
     d="M99.774 115.047a7.67 7.67 0 0 0 3.599-2.526 7.66 7.66 0 0 0 1.618-4.085c.437-4.216-2.43-7.963-6.311-8.376s-7.453 2.687-7.89 6.903a7.66 7.66 0 0 0 .767 4.364 7.67 7.67 0 0 0 3.057 3.21c-6.076.316-9.016 4.046-10.45 7.38 2.246 3.159 5.556 5.406 9.324 6.328l4.374.453c3.931-.135 7.676-1.7 10.531-4.402-.721-3.552-2.835-7.768-8.619-9.249z"
     fill="#fff"
     id="path1685" />
  <path
     opacity=".09"
     d="M67.47 112.214l3.597-3.706s-1.555 26.785-2.617 30.005-6.618 13.943-6.618 13.943l4.796-14.655.843-25.587z"
     fill="#000"
     id="path1687" />
  <path
     d="M75.434 103.97c.081.081-3.078 3.504-7.064 7.647s-7.291 7.445-7.38 7.364 3.086-3.504 7.072-7.655 7.291-7.437 7.372-7.356zm50.28-2.095a3.91 3.91 0 0 1-.041.809l-.267 2.274-1.296 7.429-1.782 7.339-.665 2.193c-.063.283-.167.556-.308.809a4.04 4.04 0 0 1 .146-.809l.535-2.217 1.661-7.348 1.417-7.396.397-2.25a3.04 3.04 0 0 1 .203-.833zm-16.135-52.854c.21 0 0 1.424 1.085 2.581s2.592 1.222 2.576 1.416-.373.227-1.013.154a3.5 3.5 0 0 1-2.154-1.101 3.06 3.06 0 0 1-.81-2.153c.016-.599.218-.922.316-.898zM91.604 28.058a8.09 8.09 0 0 0 1.725-3.981c.005-1.044-.37-2.054-1.056-2.842s-1.635-1.299-2.671-1.439a4.55 4.55 0 0 0-2.942.822 4.54 4.54 0 0 0-1.757 2.496 4.85 4.85 0 0 0 .336 3.046 4.86 4.86 0 0 0 2.095 2.238 5.14 5.14 0 0 0 5.8-.882"
     class="B"
     id="path1689" />
  <path
     d="M93.457 23.856c.11 1.056-.179 2.115-.81 2.97-.52.928-1.37 1.627-2.382 1.958.748-.66 1.427-1.395 2.025-2.193a14.51 14.51 0 0 0 1.166-2.735z"
     fill="#666276"
     id="path1691" />
  <use
     xlink:href="#C"
     class="C"
     id="use1693"
     style="fill:#dc3545;fill-opacity:1" />
  <use
     xlink:href="#C"
     opacity=".09"
     fill="#000"
     id="use1695" />
  <path
     d="M119.521 172.603c11.359 0 20.567-9.198 20.567-20.545s-9.208-20.546-20.567-20.546-20.568 9.198-20.568 20.546 9.209 20.545 20.568 20.545z"
     class="C"
     id="path1697"
     style="fill:#dc3545;fill-opacity:1" />
  <path
     d="m 119.522,164.21 c -0.583,0 -1.061,-5.446 -1.061,-12.138 0,-6.692 0.478,-12.138 1.061,-12.138 0.583,0 1.053,5.446 1.053,12.138 0,6.692 -0.478,12.138 -1.053,12.138 z"
     id="path1699"
     style="fill:#ffffff" />
  <path
     d="m 131.72,152.058 c 0,0.582 -5.444,1.052 -12.151,1.052 -6.707,0 -12.151,-0.47 -12.151,-1.052 0,-0.582 5.444,-1.052 12.151,-1.052 6.707,0 12.151,0.469 12.151,1.052 z"
     id="path1701"
     style="fill:#ffffff" />
  <defs
     id="defs1707">
    <path
       id="B"
       d="M245.998 302.318H77.772c-1.19 0-2.155.964-2.155 2.153v21.97c0 1.189.965 2.152 2.155 2.152h168.226c1.19 0 2.155-.963 2.155-2.152v-21.97c0-1.189-.965-2.153-2.155-2.153z" />
    <path
       id="C"
       d="M119.521 176.414c11.359 0 20.567-9.199 20.567-20.546s-9.208-20.546-20.567-20.546-20.568 9.199-20.568 20.546 9.209 20.546 20.568 20.546z" />
  </defs>
</svg>
