<?xml version="1.0" encoding="UTF-8" standalone="no"?>
<svg
   width="40"
   height="40"
   fill="none"
   version="1.1"
   id="svg2424"
   sodipodi:docname="flag-icon.svg"
   inkscape:version="1.1.2 (0a00cf5339, 2022-02-04)"
   xmlns:inkscape="http://www.inkscape.org/namespaces/inkscape"
   xmlns:sodipodi="http://sodipodi.sourceforge.net/DTD/sodipodi-0.dtd"
   xmlns:xlink="http://www.w3.org/1999/xlink"
   xmlns="http://www.w3.org/2000/svg"
   xmlns:svg="http://www.w3.org/2000/svg">
  <sodipodi:namedview
     id="namedview2426"
     pagecolor="#ffffff"
     bordercolor="#999999"
     borderopacity="1"
     inkscape:pageshadow="0"
     inkscape:pageopacity="0"
     inkscape:pagecheckerboard="0"
     showgrid="false"
     inkscape:zoom="17.05"
     inkscape:cx="20"
     inkscape:cy="19.853372"
     inkscape:window-width="1900"
     inkscape:window-height="1035"
     inkscape:window-x="10"
     inkscape:window-y="35"
     inkscape:window-maximized="1"
     inkscape:current-layer="svg2424" />
  <g
     id="g2941"
     style="fill-opacity:1.0;fill:url(#linearGradient2949)">
    <path
       d="m 8.334,6.667 c 0.92,0 1.667,0.746 1.667,1.667 V 35 c 0,0.921 -0.746,1.667 -1.667,1.667 C 7.413,36.667 6.667,35.92 6.667,35 V 8.333 c 0,-0.92 0.746,-1.667 1.667,-1.667 z"
       fill="url(#A)"
       id="path2407"
       style="fill:url(#linearGradient2949);fill-rule:evenodd;fill-opacity:1.0" />
    <path
       d="m 31.667,6.667 c 0.921,0 1.667,0.746 1.667,1.667 v 15 c 0,0.92 -0.746,1.667 -1.667,1.667 C 30.746,25.001 30,24.254 30,23.333 v -15 c 0,-0.92 0.746,-1.667 1.667,-1.667 z"
       fill="url(#A)"
       id="path2409"
       style="fill:url(#linearGradient2949);fill-rule:evenodd;fill-opacity:1.0" />
    <path
       d="M 14.167,7.618 C 12.422,7.618 10.746,8.302 9.5,9.524 8.843,10.168 7.787,10.158 7.143,9.5 6.499,8.842 6.509,7.787 7.167,7.143 a 10,10 0 0 1 14,0 c 1.246,1.222 2.922,1.906 4.667,1.906 1.745,0 3.42,-0.684 4.667,-1.906 0.657,-0.644 1.713,-0.634 2.357,0.024 0.644,0.658 0.634,1.713 -0.023,2.357 a 10,10 0 0 1 -14,0 C 17.589,8.302 15.913,7.618 14.168,7.618 Z"
       fill="url(#A)"
       id="path2411"
       style="fill:url(#linearGradient2949);fill-rule:evenodd;fill-opacity:1.0" />
    <path
       d="m 14.167,22.618 c -1.745,0 -3.421,0.684 -4.667,1.906 C 8.843,25.168 7.787,25.158 7.143,24.5 6.499,23.842 6.509,22.787 7.167,22.143 a 10,10 0 0 1 14,0 c 1.246,1.221 2.922,1.906 4.667,1.906 1.745,0 3.42,-0.684 4.667,-1.906 0.657,-0.644 1.713,-0.634 2.357,0.024 0.644,0.658 0.634,1.713 -0.023,2.357 a 10,10 0 0 1 -14,0 c -1.246,-1.221 -2.922,-1.906 -4.667,-1.906 z"
       fill="url(#A)"
       id="path2413"
       style="fill:url(#linearGradient2949);fill-rule:evenodd;fill-opacity:1.0" />
  </g>
  <defs
     id="defs2422">
    <linearGradient
       id="A"
       x1="6.667"
       y1="36.667"
       x2="29.838"
       y2="-2.096"
       gradientUnits="userSpaceOnUse">
      <stop
         stop-color="#5d3cf2"
         id="stop2417"
         style="stop-color:#000000;stop-opacity:1" />
      <stop
         offset="1"
         stop-color="#fd5631"
         id="stop2419"
         style="stop-color:#0be47b;stop-opacity:1" />
    </linearGradient>
    <linearGradient
       inkscape:collect="always"
       xlink:href="#A"
       id="linearGradient2949"
       x1="6.666667"
       y1="20.475714"
       x2="33.334454"
       y2="20.475714"
       gradientUnits="userSpaceOnUse" />
  </defs>
</svg>
