<?xml version="1.0" encoding="UTF-8" standalone="no"?>
<!-- Generator: Adobe Illustrator 23.0.1, SVG Export Plug-In . SVG Version: 6.00 Build 0)  -->

<svg
   version="1.1"
   id="Layer_1"
   x="0px"
   y="0px"
   viewBox="0 0 2 655.9"
   style="enable-background:new 0 0 2 655.9;"
   xml:space="preserve"
   sodipodi:docname="road-line.svg"
   inkscape:version="1.1.2 (0a00cf5339, 2022-02-04)"
   xmlns:inkscape="http://www.inkscape.org/namespaces/inkscape"
   xmlns:sodipodi="http://sodipodi.sourceforge.net/DTD/sodipodi-0.dtd"
   xmlns="http://www.w3.org/2000/svg"
   xmlns:svg="http://www.w3.org/2000/svg"><defs
   id="defs942" /><sodipodi:namedview
   id="namedview940"
   pagecolor="#ffffff"
   bordercolor="#999999"
   borderopacity="1"
   inkscape:pageshadow="0"
   inkscape:pageopacity="0"
   inkscape:pagecheckerboard="0"
   showgrid="false"
   inkscape:zoom="5.1166336"
   inkscape:cx="-56.091567"
   inkscape:cy="321.01184"
   inkscape:window-width="1900"
   inkscape:window-height="1035"
   inkscape:window-x="10"
   inkscape:window-y="35"
   inkscape:window-maximized="1"
   inkscape:current-layer="Layer_1" />
<style
   type="text/css"
   id="style911">
	.st0{opacity:0.15;fill-rule:evenodd;clip-rule:evenodd;fill:#FFFFFF;enable-background:new    ;}
	.st1{opacity:0.15;}
	.st2{fill:#FFFFFF;}
</style>
<g
   id="g937"
   style="fill:#000000">
	<path
   class="st0"
   d="M2,335.1V354H0l0-18.9H2z M2,368.6v18.9H0l0-18.9H2z M2,402.1v18.9H0l0-18.9H2z M2,435.7v18.9H0l0-18.9H2z    M2,469.2v18.9H0l0-18.9H2z M2,502.8v18.9H0l0-18.9H2z M2,536.3v18.9H0l0-18.9H2z M2,569.9v18.9H0l0-18.9H2z M2,603.4l0,18.9H0   l0-18.9H2z M2,637v9.5v9.5H0L0,637H2z"
   id="path913"
   style="fill:#000000" />
	<g
   class="st1"
   id="g935"
   style="fill:#000000">
		<path
   class="st2"
   d="M2,18.9H0L0,0h2V18.9z"
   id="path915"
   style="fill:#000000" />
		<path
   class="st2"
   d="M2,52.5H0l0-18.9h2V52.5z"
   id="path917"
   style="fill:#000000" />
		<path
   class="st2"
   d="M2,86H0l0-18.9h2V86z"
   id="path919"
   style="fill:#000000" />
		<path
   class="st2"
   d="M2,119.6H0l0-18.9h2V119.6z"
   id="path921"
   style="fill:#000000" />
		<path
   class="st2"
   d="M2,153.1H0l0-18.9h2V153.1z"
   id="path923"
   style="fill:#000000" />
		<path
   class="st2"
   d="M2,186.7H0l0-18.9h2V186.7z"
   id="path925"
   style="fill:#000000" />
		<path
   class="st2"
   d="M2,220.2H0l0-18.9h2V220.2z"
   id="path927"
   style="fill:#000000" />
		<path
   class="st2"
   d="M2,253.8H0l0-18.9h2V253.8z"
   id="path929"
   style="fill:#000000" />
		<path
   class="st2"
   d="M2,287.3H0l0-18.9h2L2,287.3z"
   id="path931"
   style="fill:#000000" />
		<path
   class="st2"
   d="M2,320.8H0l0-18.9h2v9.5V320.8z"
   id="path933"
   style="fill:#000000" />
	</g>
</g>
</svg>
